<svg width="420" height="379" viewBox="0 0 420 379" fill="none" xmlns="http://www.w3.org/2000/svg">
<path d="M405.925 210.18H297.662V72.6521H372.095C379.971 72.6521 387.192 77.0371 390.824 84.0261L405.925 113.083V210.18Z" fill="white"/>
<path d="M358.403 113.637H311.981C310.405 113.637 309.127 112.359 309.127 110.783C309.127 109.207 310.405 107.929 311.981 107.929H358.403C359.979 107.929 361.257 109.207 361.257 110.783C361.257 112.359 359.98 113.637 358.403 113.637Z" fill="#FFEED4"/>
<path d="M393.529 121.842H310.061C309.545 121.842 309.127 121.424 309.127 120.908V120.786C309.127 120.27 309.545 119.852 310.061 119.852H393.529C394.045 119.852 394.463 120.27 394.463 120.786V120.908C394.463 121.423 394.045 121.842 393.529 121.842Z" fill="#FFEED4"/>
<path d="M393.529 129.672H310.061C309.545 129.672 309.127 129.254 309.127 128.738V128.616C309.127 128.1 309.545 127.682 310.061 127.682H393.529C394.045 127.682 394.463 128.1 394.463 128.616V128.738C394.463 129.254 394.045 129.672 393.529 129.672Z" fill="#FFEED4"/>
<path d="M393.529 137.503H310.061C309.545 137.503 309.127 137.085 309.127 136.569V136.447C309.127 135.931 309.545 135.513 310.061 135.513H393.529C394.045 135.513 394.463 135.931 394.463 136.447V136.569C394.463 137.085 394.045 137.503 393.529 137.503Z" fill="#FFEED4"/>
<path d="M343.747 145.334H310.061C309.545 145.334 309.127 144.916 309.127 144.4V144.278C309.127 143.762 309.545 143.344 310.061 143.344H343.747C344.263 143.344 344.681 143.762 344.681 144.278V144.4C344.681 144.915 344.263 145.334 343.747 145.334Z" fill="#FFEED4"/>
<path d="M358.403 160.29H311.981C310.405 160.29 309.127 159.012 309.127 157.436C309.127 155.86 310.405 154.582 311.981 154.582H358.403C359.979 154.582 361.257 155.86 361.257 157.436C361.257 159.012 359.98 160.29 358.403 160.29Z" fill="#FFEED4"/>
<path d="M393.529 168.495H310.061C309.545 168.495 309.127 168.077 309.127 167.561V167.439C309.127 166.923 309.545 166.505 310.061 166.505H393.529C394.045 166.505 394.463 166.923 394.463 167.439V167.561C394.463 168.077 394.045 168.495 393.529 168.495Z" fill="#FFEED4"/>
<path d="M393.529 176.326H310.061C309.545 176.326 309.127 175.908 309.127 175.392V175.27C309.127 174.754 309.545 174.336 310.061 174.336H393.529C394.045 174.336 394.463 174.754 394.463 175.27V175.392C394.463 175.907 394.045 176.326 393.529 176.326Z" fill="#FFEED4"/>
<path d="M393.529 184.156H310.061C309.545 184.156 309.127 183.738 309.127 183.222V183.1C309.127 182.584 309.545 182.166 310.061 182.166H393.529C394.045 182.166 394.463 182.584 394.463 183.1V183.222C394.463 183.738 394.045 184.156 393.529 184.156Z" fill="#FFEED4"/>
<path d="M343.747 191.987H310.061C309.545 191.987 309.127 191.569 309.127 191.053V190.931C309.127 190.415 309.545 189.997 310.061 189.997H343.747C344.263 189.997 344.681 190.415 344.681 190.931V191.053C344.681 191.569 344.263 191.987 343.747 191.987Z" fill="#FFEED4"/>
<path d="M269.554 97.747C268.029 96.134 266.34 95.255 265.782 95.783L246.272 114.234C245.714 114.762 246.498 116.497 248.023 118.11C249.548 119.723 251.237 120.602 251.795 120.074L271.305 101.623C271.863 101.095 271.079 99.36 269.554 97.747Z" fill="#3B6E56"/>
<path d="M285.848 78.2L266.265 96.7199C265.848 97.1149 266.434 98.4119 267.574 99.6179C268.714 100.824 269.977 101.481 270.394 101.087L289.977 82.5669L285.848 78.2Z" fill="#3B4C73"/>
<path d="M277.844 85.771C279.6 87.007 281.477 87.991 283.419 88.77L289.979 82.566L285.85 78.199L277.844 85.771Z" fill="#26314A"/>
<path d="M304.36 92.388C319.58 92.388 331.919 80.0494 331.919 64.829C331.919 49.6086 319.58 37.27 304.36 37.27C289.139 37.27 276.801 49.6086 276.801 64.829C276.801 80.0494 289.139 92.388 304.36 92.388Z" fill="#3B4C73"/>
<path d="M304.362 88.378C317.367 88.378 327.91 77.8348 327.91 64.829C327.91 51.8233 317.367 41.28 304.362 41.28C291.356 41.28 280.812 51.8233 280.812 64.829C280.812 77.8348 291.356 88.378 304.362 88.378Z" fill="#EBD0A9"/>
<path d="M291.251 52.4981C290.845 52.4981 290.44 52.3371 290.139 52.0191C289.558 51.4051 289.585 50.4351 290.199 49.8551C297.774 42.6911 309.52 42.3091 317.526 48.9681C318.176 49.5091 318.264 50.4741 317.724 51.1241C317.184 51.7731 316.218 51.8621 315.568 51.3221C308.755 45.6531 298.754 45.9801 292.304 52.0791C292.007 52.3591 291.629 52.4981 291.251 52.4981Z" fill="white"/>
<path d="M320.515 56.197C320.007 56.197 319.509 55.944 319.218 55.482C318.929 55.022 318.609 54.566 318.271 54.127C317.754 53.458 317.878 52.496 318.547 51.98C319.217 51.464 320.179 51.587 320.694 52.257C321.093 52.773 321.468 53.31 321.809 53.851C322.26 54.566 322.045 55.512 321.33 55.962C321.077 56.121 320.794 56.197 320.515 56.197Z" fill="white"/>
<path d="M372.096 72.6521C381.912 72.6521 389.011 81.1441 379.554 93.9681L405.927 113.084L390.826 84.0271C387.193 77.0371 379.972 72.6521 372.096 72.6521Z" fill="#B5915F"/>
<path d="M292.93 66.7371V78.3361C292.93 80.7911 294.401 83.0291 296.678 83.9451C303.913 86.8521 312.487 85.5151 318.523 79.8061C321.22 77.2551 323.066 74.1481 324.066 70.8321C324.68 68.7941 323.155 66.7381 321.026 66.7381H292.93V66.7371Z" fill="white"/>
<path d="M216.527 323.415H382.487C394.195 323.415 403.687 333.316 403.687 345.53V355.955C403.687 368.169 394.196 378.07 382.487 378.07H216.527V323.415Z" fill="#828F60"/>
<path d="M400.089 355.955V345.53C400.089 333.316 390.598 323.415 378.889 323.415H382.487C394.195 323.415 403.687 333.316 403.687 345.53V355.955C403.687 368.169 394.196 378.07 382.487 378.07H378.889C390.598 378.069 400.089 368.168 400.089 355.955Z" fill="#8FC7B2"/>
<path d="M391.942 355.955V345.53C391.942 333.316 382.451 323.415 370.742 323.415H374.34C386.048 323.415 395.54 333.316 395.54 345.53V355.955C395.54 368.169 386.049 378.07 374.34 378.07H370.742C382.45 378.069 391.942 368.168 391.942 355.955Z" fill="#8FC7B2"/>
<path d="M256.971 355.955V345.53C256.971 333.316 247.48 323.415 235.771 323.415H239.369C251.077 323.415 260.569 333.316 260.569 345.53V355.955C260.569 368.169 251.078 378.07 239.369 378.07H235.771C247.48 378.069 256.971 368.168 256.971 355.955Z" fill="#8FC7B2"/>
<path d="M248.825 355.955V345.53C248.825 333.316 239.334 323.415 227.625 323.415H231.223C242.931 323.415 252.423 333.316 252.423 345.53V355.955C252.423 368.169 242.932 378.07 231.223 378.07H227.625C239.333 378.069 248.825 368.168 248.825 355.955Z" fill="#8FC7B2"/>
<path d="M120.258 374.179V327.305H112.623V323.414H226.971C238.679 323.414 248.171 333.315 248.171 345.529V355.954C248.171 368.168 238.68 378.069 226.971 378.069H112.623V374.178H120.258V374.179Z" fill="#828F60"/>
<path d="M115.174 374.179C115.153 374.071 115.135 373.963 115.135 373.853C115.135 373.294 115.413 372.763 115.914 372.282C116.978 371.261 116.978 369.842 115.914 368.82C115.413 368.339 115.135 367.808 115.135 367.249C115.135 366.69 115.413 366.159 115.914 365.678C116.978 364.657 116.978 363.238 115.914 362.216C115.413 361.735 115.135 361.204 115.135 360.645C115.135 360.086 115.413 359.555 115.914 359.074C116.978 358.053 116.978 356.634 115.914 355.612C115.413 355.131 115.135 354.6 115.135 354.041C115.135 353.482 115.413 352.951 115.914 352.47C116.978 351.449 116.978 350.03 115.914 349.008C115.413 348.527 115.135 347.996 115.135 347.437C115.135 346.878 115.413 346.347 115.914 345.866C116.978 344.845 116.978 343.426 115.914 342.404C115.413 341.923 115.135 341.392 115.135 340.833C115.135 340.274 115.413 339.743 115.914 339.262C116.978 338.241 116.978 336.822 115.914 335.8C115.413 335.319 115.135 334.788 115.135 334.229C115.135 333.67 115.413 333.139 115.914 332.658C116.978 331.637 116.978 330.218 115.914 329.196C115.413 328.715 115.135 328.184 115.135 327.625C115.135 327.515 115.153 327.407 115.174 327.299H227.25C236.839 327.299 244.613 335.408 244.613 345.411V356.06C244.613 366.063 236.84 374.172 227.25 374.172H115.174V374.179Z" fill="white"/>
<path d="M244.347 359.119H115.875C115.889 359.105 115.899 359.09 115.913 359.076C116.328 358.677 116.576 358.218 116.668 357.746H244.531C244.49 358.21 244.421 358.665 244.347 359.119Z" fill="#EBD0A9"/>
<path d="M244.614 355.274H115.609C115.305 354.887 115.137 354.474 115.137 354.044C115.137 353.996 115.151 353.949 115.155 353.901H244.614V355.274Z" fill="#EBD0A9"/>
<path d="M243.783 339.893H115.418C115.545 339.677 115.705 339.466 115.913 339.266C116.154 339.035 116.332 338.782 116.464 338.519H243.301C243.479 338.969 243.64 339.427 243.783 339.893Z" fill="#EBD0A9"/>
<path d="M244.613 347.584H115.153C115.149 347.536 115.135 347.489 115.135 347.441C115.135 347.011 115.303 346.598 115.607 346.211H244.613V347.584Z" fill="#EBD0A9"/>
<path d="M243.784 361.591C243.641 362.057 243.48 362.515 243.302 362.964H116.466C116.334 362.702 116.156 362.448 115.915 362.217C115.707 362.017 115.547 361.806 115.42 361.59H243.784V361.591Z" fill="#EBD0A9"/>
<path d="M241.206 334.675C241.52 335.118 241.814 335.576 242.088 336.048H116.127C116.058 335.966 115.995 335.882 115.914 335.805C115.547 335.453 115.303 335.073 115.197 334.675H241.206Z" fill="#EBD0A9"/>
<path d="M116.702 330.83H237.512C238.067 331.256 238.597 331.713 239.099 332.203H116.299C116.592 331.772 116.725 331.3 116.702 330.83Z" fill="#EBD0A9"/>
<path d="M244.347 342.365C244.421 342.819 244.49 343.274 244.531 343.738H116.668C116.577 343.266 116.329 342.806 115.914 342.408C115.899 342.394 115.889 342.379 115.875 342.365H244.347Z" fill="#EBD0A9"/>
<path d="M116.702 370.654C116.725 370.184 116.593 369.712 116.299 369.281H239.099C238.597 369.771 238.067 370.228 237.512 370.654H116.702Z" fill="#EBD0A9"/>
<path d="M241.206 366.809H115.197C115.303 366.411 115.547 366.032 115.914 365.679C115.995 365.601 116.058 365.517 116.127 365.436H242.089C241.814 365.908 241.52 366.366 241.206 366.809Z" fill="#EBD0A9"/>
<path d="M116.584 350.055H244.612V351.428H116.584C116.737 350.977 116.737 350.507 116.584 350.055Z" fill="#EBD0A9"/>
<path d="M272.451 342.946L263.827 348.899C262.537 349.789 262.537 351.695 263.827 352.586L272.451 358.539C273.217 359.068 274.23 359.068 274.996 358.539L283.62 352.586C284.91 351.696 284.91 349.79 283.62 348.899L274.996 342.946C274.23 342.417 273.217 342.417 272.451 342.946Z" fill="#8FC7B2"/>
<path d="M377.617 342.946L368.993 348.899C367.703 349.789 367.703 351.695 368.993 352.586L377.617 358.539C378.383 359.068 379.396 359.068 380.162 358.539L388.786 352.586C390.076 351.696 390.076 349.79 388.786 348.899L380.162 342.946C379.396 342.417 378.383 342.417 377.617 342.946Z" fill="#8FC7B2"/>
<path d="M353.906 360.355H298.311C294.243 360.355 290.945 357.057 290.945 352.989V348.496C290.945 344.428 294.243 341.13 298.311 341.13H353.906C357.974 341.13 361.272 344.428 361.272 348.496V352.989C361.272 357.057 357.974 360.355 353.906 360.355Z" stroke="#8FC7B2" stroke-width="2.2871" stroke-miterlimit="10"/>
<path d="M241.971 271.022H116.243C104.535 271.022 95.043 280.513 95.043 292.222V302.216C95.043 313.924 104.534 323.416 116.243 323.416H241.971V271.022Z" fill="#B5915F"/>
<path d="M340.069 271.022H214.341C202.633 271.022 193.141 280.513 193.141 292.222V302.216C193.141 313.924 202.632 323.416 214.341 323.416H340.069V271.022Z" fill="#26314A"/>
<path d="M110.197 302.215V292.221C110.197 280.513 119.688 271.021 131.397 271.021H116.243C104.535 271.021 95.043 280.512 95.043 292.221V302.215C95.043 313.923 104.534 323.415 116.243 323.415H131.397C119.688 323.415 110.197 313.923 110.197 302.215Z" fill="#26314A"/>
<path d="M362.561 319.685V274.751H370.196V271.021H229.54C217.832 271.021 208.34 280.512 208.34 292.221V302.215C208.34 313.923 217.831 323.415 229.54 323.415H370.196V319.685H362.561Z" fill="#CFAB7A"/>
<path d="M367.645 319.685C367.666 319.582 367.684 319.478 367.684 319.373C367.684 318.837 367.406 318.328 366.905 317.867C365.841 316.888 365.841 315.528 366.905 314.549C367.406 314.088 367.684 313.579 367.684 313.043C367.684 312.507 367.406 311.998 366.905 311.537C365.841 310.558 365.841 309.198 366.905 308.219C367.406 307.758 367.684 307.249 367.684 306.713C367.684 306.177 367.406 305.668 366.905 305.207C365.841 304.228 365.841 302.868 366.905 301.889C367.406 301.428 367.684 300.919 367.684 300.383C367.684 299.847 367.406 299.338 366.905 298.877C365.841 297.898 365.841 296.538 366.905 295.559C367.406 295.098 367.684 294.589 367.684 294.053C367.684 293.517 367.406 293.008 366.905 292.547C365.841 291.568 365.841 290.208 366.905 289.229C367.406 288.768 367.684 288.259 367.684 287.723C367.684 287.187 367.406 286.678 366.905 286.217C365.841 285.238 365.841 283.878 366.905 282.899C367.406 282.438 367.684 281.929 367.684 281.393C367.684 280.857 367.406 280.348 366.905 279.887C365.841 278.908 365.841 277.548 366.905 276.569C367.406 276.108 367.684 275.599 367.684 275.063C367.684 274.958 367.666 274.854 367.645 274.751H229.261C219.672 274.751 211.898 282.524 211.898 292.114V302.323C211.898 311.912 219.671 319.686 229.261 319.686H367.645V319.685Z" fill="white"/>
<path d="M212.163 305.248H366.943C366.929 305.235 366.919 305.22 366.905 305.207C366.49 304.825 366.242 304.384 366.15 303.932H211.979C212.02 304.377 212.089 304.813 212.163 305.248Z" fill="#EBD0A9"/>
<path d="M211.898 301.562H367.211C367.515 301.191 367.683 300.795 367.683 300.383C367.683 300.337 367.669 300.292 367.665 300.246H211.898V301.562Z" fill="#EBD0A9"/>
<path d="M212.727 286.818H367.4C367.273 286.611 367.113 286.409 366.905 286.217C366.664 285.996 366.486 285.753 366.354 285.501H213.209C213.031 285.932 212.87 286.371 212.727 286.818Z" fill="#EBD0A9"/>
<path d="M211.898 294.19H367.666C367.67 294.144 367.684 294.099 367.684 294.053C367.684 293.641 367.516 293.245 367.212 292.874H211.898V294.19Z" fill="#EBD0A9"/>
<path d="M212.727 307.618C212.87 308.065 213.031 308.504 213.209 308.934H366.354C366.486 308.682 366.664 308.44 366.905 308.218C367.113 308.026 367.273 307.824 367.4 307.617H212.727V307.618Z" fill="#EBD0A9"/>
<path d="M215.306 281.816C214.992 282.241 214.698 282.679 214.424 283.132H366.694C366.763 283.053 366.826 282.973 366.907 282.899C367.274 282.561 367.518 282.197 367.624 281.816H215.306Z" fill="#EBD0A9"/>
<path d="M366.119 278.13H219.001C218.446 278.538 217.916 278.976 217.414 279.446H366.522C366.228 279.033 366.096 278.581 366.119 278.13Z" fill="#EBD0A9"/>
<path d="M212.163 289.188C212.089 289.623 212.02 290.059 211.979 290.504H366.15C366.241 290.051 366.489 289.611 366.904 289.229C366.919 289.216 366.929 289.201 366.943 289.188H212.163Z" fill="#EBD0A9"/>
<path d="M366.119 316.306C366.096 315.855 366.228 315.403 366.522 314.99H217.414C217.916 315.46 218.446 315.898 219.001 316.306H366.119Z" fill="#EBD0A9"/>
<path d="M215.305 312.62H367.622C367.516 312.239 367.272 311.875 366.905 311.537C366.824 311.463 366.761 311.382 366.692 311.304H214.422C214.697 311.757 214.991 312.195 215.305 312.62Z" fill="#EBD0A9"/>
<path d="M366.234 296.56H211.898V297.876H366.234C366.081 297.443 366.081 296.993 366.234 296.56Z" fill="#EBD0A9"/>
<path d="M256.705 304.433C250.865 304.433 249.406 302.346 249.416 298.59C249.426 294.834 248.797 291.287 244.78 290.504H220.666C229.964 296.503 223.454 304.459 226.129 311.423C228.093 316.535 234.766 314.136 239.842 317.224C240.968 317.909 241.795 318.732 242.397 319.685H269.834C270.421 311.712 267.089 304.433 256.705 304.433Z" fill="#EBD0A9"/>
<path d="M180.359 305.248H122.932C120.034 305.248 117.684 302.898 117.684 300V294.436C117.684 291.538 120.034 289.188 122.932 289.188H180.359C183.257 289.188 185.607 291.538 185.607 294.436V300C185.606 302.899 183.257 305.248 180.359 305.248Z" fill="#EBD0A9"/>
<path d="M119.943 277.487H194.612" stroke="#EBD0A9" stroke-width="1.1435" stroke-miterlimit="10" stroke-linecap="round" stroke-linejoin="round"/>
<path d="M119.943 316.949H194.612" stroke="#EBD0A9" stroke-width="1.1435" stroke-miterlimit="10" stroke-linecap="round" stroke-linejoin="round"/>
<path d="M364.975 323.696H120.053" stroke="#26314A" stroke-width="1.1435" stroke-miterlimit="10"/>
<path d="M220.666 290.504H244.78C249.038 291.222 250.761 294.475 251.909 297.92C253.057 301.365 255.159 303.279 261 303.279C274.109 303.279 279.564 313.92 279.564 323.049L266.837 318.647C266.837 318.647 262.435 327.412 255.641 331.565C255.163 323.087 254.11 317.843 248.082 315.011C242.054 312.179 236.121 314.379 232.58 309.691C227.757 303.304 231.813 296.007 220.666 290.504Z" fill="#3B4C73"/>
<path d="M57.3576 315.678H45.4336V335.592H57.3576V315.678Z" fill="#B5915F"/>
<path d="M57.3576 316.063C55.2086 316.298 53.0306 316.403 50.8316 316.351C49.0116 316.309 47.2116 316.157 45.4336 315.919V319.386C47.1876 319.605 48.9616 319.74 50.7526 319.781C51.1656 319.79 51.5776 319.794 51.9896 319.794C53.7946 319.794 55.5846 319.695 57.3586 319.513L57.3576 316.063Z" fill="#26314A"/>
<path d="M57.3586 335.592H45.4336V330.68L57.3586 333.084V335.592Z" fill="#26314A"/>
<path d="M58.5484 335.592H44.2414C42.1074 335.592 40.2494 337.05 39.7424 339.122L36.0684 354.121H66.7214L63.0474 339.122C62.5404 337.05 60.6824 335.592 58.5484 335.592Z" fill="#B5915F"/>
<path d="M68.5794 354.121H34.2124C31.1844 354.121 28.5054 356.081 27.5894 358.967L21.5254 378.07H81.2664L75.2024 358.967C74.2864 356.081 71.6074 354.121 68.5794 354.121Z" fill="#B5915F"/>
<path d="M36.0684 354.121H66.7214L66.2714 352.285L37.2594 349.26L36.0684 354.121Z" fill="#26314A"/>
<path d="M35.3581 217.683L34.3594 218.045L68.3109 311.923L69.3096 311.562L35.3581 217.683Z" fill="#B5915F"/>
<path d="M51.958 309.593C76.5126 309.593 96.418 289.687 96.418 265.133C96.418 240.578 76.5126 220.673 51.958 220.673C27.4035 220.673 7.49805 240.578 7.49805 265.133C7.49805 289.687 27.4035 309.593 51.958 309.593Z" fill="#8FC7B2"/>
<path d="M43.3745 223.53C43.7565 224.219 44.0535 224.96 44.5295 225.588C44.6145 225.701 44.7105 225.813 44.8385 225.872C44.9905 225.943 45.1675 225.93 45.3325 225.904C46.5385 225.72 47.5975 224.961 48.3845 224.028C49.1715 223.095 49.7215 221.99 50.2645 220.897C49.9485 220.848 49.6315 220.808 49.3155 220.761C46.8935 220.904 44.4815 221.24 42.1035 221.778C42.5905 222.313 43.0235 222.897 43.3745 223.53Z" fill="#828F60"/>
<path d="M77.2146 228.535C76.3336 228.837 75.4986 229.271 74.7556 229.833C74.4946 230.031 74.2046 230.256 73.8786 230.218C73.4756 230.172 73.2346 229.755 72.8986 229.528C72.1726 229.038 70.9316 229.377 70.5306 228.599C70.3186 228.186 70.4986 227.688 70.6936 227.267C71.0046 226.595 71.3546 225.94 71.7326 225.303C71.2476 225.062 70.7566 224.839 70.2646 224.617C69.9546 225.197 69.6586 225.784 69.3896 226.384C68.9516 227.362 68.5476 228.396 67.7796 229.144C67.2356 229.673 66.5416 230.025 65.9896 230.546C65.4376 231.067 65.0326 231.87 65.3066 232.578C65.4186 232.868 65.6316 233.105 65.7916 233.371C65.9516 233.637 66.0606 233.97 65.9396 234.256C65.8186 234.542 65.0086 234.917 64.9096 234.623C64.6936 233.979 63.8786 233.741 63.2056 233.84C62.5336 233.939 61.9136 234.271 61.2426 234.377C60.5716 234.483 59.7556 234.263 59.5206 233.625C59.0746 235.332 58.3256 236.96 57.3196 238.41C56.5946 239.453 55.6906 240.564 55.8506 241.824C55.9796 242.836 56.7896 243.686 56.8246 244.705C56.8566 245.656 56.1996 246.573 56.4036 247.502C56.5256 248.059 56.9476 248.533 56.9836 249.103C56.9976 249.318 56.9546 249.541 57.0236 249.746C57.0706 249.884 57.1656 250.001 57.2646 250.108C58.9966 251.979 62.4686 251.68 63.8336 253.834C65.0116 253.434 66.3226 252.913 66.7896 251.76C66.8826 251.53 66.9446 251.271 67.1276 251.104C67.4836 250.781 68.0686 250.976 68.5086 250.782C69.4746 250.358 69.0416 248.553 70.0156 248.148C70.1856 248.077 70.3746 248.066 70.5456 247.999C70.9596 247.838 71.1806 247.402 71.4316 247.036C71.7816 246.525 72.2296 246.056 72.7706 245.754C72.8176 245.55 72.8646 245.346 72.9116 245.143C73.3476 244.825 74.0276 244.914 74.3656 245.335C74.6346 245.67 74.7326 246.19 75.1376 246.333C75.3496 246.408 75.5826 246.349 75.8036 246.31C77.1616 246.074 78.6316 246.726 79.3666 247.892C79.5086 248.117 79.6316 248.365 79.8436 248.525C80.0666 248.694 80.3566 248.74 80.6276 248.809C81.4946 249.029 82.2856 249.538 82.8456 250.235C83.3436 250.856 83.6676 251.625 84.2726 252.143C85.3246 253.044 86.8876 252.936 88.1826 253.429C88.9596 253.725 89.6336 254.238 90.3736 254.617C91.1136 254.996 91.9936 255.24 92.7736 254.952C93.1646 254.807 93.5016 254.539 93.8946 254.4C94.2606 254.27 94.6606 254.257 95.0396 254.177C93.2206 246.998 89.5926 240.173 84.1136 234.434C81.9796 232.195 79.6646 230.229 77.2146 228.535Z" fill="#828F60"/>
<path d="M69.7837 280.997C69.6237 280.746 69.3637 280.58 69.1317 280.394C68.2017 279.647 67.6637 278.437 67.7337 277.246C67.8137 275.862 68.6497 274.481 68.2137 273.165C67.5867 271.272 64.6207 270.507 64.7577 268.517C64.7787 268.211 64.8807 267.907 64.8407 267.603C64.7367 266.82 63.7387 266.461 62.9717 266.65C62.2047 266.839 61.5787 267.376 60.8757 267.735C60.3797 267.989 59.8107 268.179 59.4877 268.633C59.2997 268.898 59.2167 269.229 59.0077 269.477C58.3747 270.234 57.0807 269.811 56.2347 270.318C55.8657 270.539 55.5717 270.941 55.1427 270.97C54.6557 271.003 54.2867 270.539 53.8207 270.393C52.2777 269.909 51.4327 272.654 49.8317 272.426C49.1427 272.328 48.4437 272.229 47.7527 272.319C47.0627 272.409 46.3697 272.712 45.9607 273.275C45.7897 273.51 45.6747 273.78 45.5277 274.03C45.0557 274.836 44.2387 275.431 43.3277 275.635C43.1387 275.677 42.9387 275.706 42.7777 275.814C42.5887 275.941 42.4827 276.158 42.4057 276.372C42.0577 277.339 42.2607 278.572 42.7747 279.462C42.0157 279.391 41.2317 279.665 40.6827 280.193C40.3767 280.487 40.1307 280.862 39.7487 281.049C39.0347 281.399 38.2037 280.954 37.5337 280.527C37.3237 280.393 37.0747 280.255 36.8397 280.336C36.6627 280.397 36.5507 280.566 36.4417 280.718C36.1337 281.147 35.6097 281.554 35.1197 281.356C34.3967 281.064 34.6387 279.944 34.2087 279.294C33.8317 279.667 33.4377 280.071 33.3257 280.589C33.2597 280.894 33.2997 281.211 33.2897 281.523C33.2467 282.875 31.9157 284.175 30.6107 283.816C29.7487 283.579 29.1947 282.771 28.6637 282.052C28.1767 281.391 27.6317 280.728 27.4677 279.924C27.3027 279.12 27.6267 278.082 28.4267 277.899C28.7347 277.407 29.2047 277.02 29.7467 276.813C29.2497 276.353 29.4027 275.462 29.9187 275.023C30.4347 274.584 31.1737 274.514 31.8457 274.602C32.6107 274.703 33.3507 274.985 33.9877 275.42C34.2647 275.609 34.6787 275.812 34.8847 275.547C35.0387 275.349 34.9087 275.061 34.7627 274.858C34.3187 274.243 33.7237 273.737 33.0447 273.397C32.6067 273.178 32.1197 273.017 31.7847 272.659C30.8597 271.673 31.6647 270.044 31.3437 268.731C31.1887 268.097 30.7737 267.566 30.4507 266.999C30.1287 266.432 29.8917 265.743 30.1297 265.135C30.2747 264.763 30.5777 264.478 30.7957 264.144C31.0147 263.81 31.1427 263.351 30.9157 263.022C30.7747 262.818 30.5317 262.714 30.3457 262.55C29.9397 262.19 29.8637 261.55 30.0717 261.05C30.2797 260.549 30.7247 260.177 31.2107 259.937C31.4857 259.801 31.8147 259.659 31.8837 259.361C31.9177 259.211 31.8747 259.056 31.8437 258.905C31.6947 258.179 31.8497 257.441 32.2567 256.821C31.5267 256.734 30.9757 257.633 30.2417 257.6C29.8097 257.581 29.4687 257.244 29.1717 256.93C29.0187 257.611 28.5817 258.224 27.9877 258.591C27.2707 257.521 27.6307 255.884 28.7307 255.215C28.9097 255.106 29.1097 255.015 29.2317 254.845C29.5647 254.384 29.1247 253.709 29.3307 253.18C29.5647 252.582 30.5007 252.597 30.9417 253.064C31.3827 253.531 31.4607 254.222 31.5157 254.862C32.1547 254.324 32.9737 254.003 33.8077 253.961C33.3547 253.242 32.5867 252.793 31.8487 252.372C31.6537 252.261 31.4587 252.15 31.2637 252.038C30.8877 251.824 30.5117 251.609 30.1257 251.413C29.2877 250.988 28.3617 250.646 27.4277 250.749C27.0397 250.792 26.6597 250.911 26.2697 250.902C25.8797 250.893 25.4557 250.714 25.3167 250.349C25.2417 250.152 25.2487 249.905 25.0857 249.77C24.9877 249.689 24.8527 249.672 24.7247 249.665C24.0347 249.625 23.3357 249.758 22.7097 250.049C23.2027 250.218 23.6267 250.664 23.6407 251.185C23.6547 251.706 23.1457 252.215 22.6387 252.094C21.8127 251.896 21.7787 250.485 20.9487 250.303C20.5727 250.22 20.2037 250.443 19.8827 250.656C19.4357 250.952 18.9887 251.249 18.5407 251.545C18.0737 251.854 17.5477 252.285 17.6197 252.841C17.6957 253.423 18.3767 253.698 18.9567 253.783C19.5377 253.868 20.2067 253.922 20.5537 254.395C20.9967 255 20.6167 255.831 20.5087 256.573C20.4177 257.201 20.5457 257.858 20.8667 258.405C20.9447 258.538 21.0367 258.675 21.0367 258.83C21.0367 259.065 20.8287 259.24 20.6397 259.38C20.0827 259.793 19.5247 260.206 18.9677 260.619C18.4837 260.977 17.9617 261.35 17.3607 261.38C16.7117 261.412 16.0917 261.034 15.4447 261.086C15.1337 261.111 14.8277 261.234 14.5197 261.188C13.8937 261.095 13.5847 260.39 13.4167 259.78C12.9717 258.168 12.7157 256.504 12.6567 254.832C12.6307 254.093 13.0757 253.265 13.5727 252.717C13.9607 252.671 15.0007 252.542 15.0007 252.542C15.0007 252.542 15.6367 251.826 15.2037 251.485C14.7697 251.144 14.0377 251.734 12.9107 250.327C11.7837 248.92 12.9367 249.223 13.1267 248.178C13.3167 247.133 12.7207 246.622 12.1227 246.222C11.9657 246.294 11.8017 246.341 11.6397 246.395C6.05172 258.429 6.11472 272.476 11.9317 284.494C12.8397 284.751 13.6767 285.152 14.2907 285.858C14.4327 286.022 14.5707 286.206 14.7727 286.285C14.9147 286.34 15.0727 286.335 15.2257 286.326C16.4917 286.248 17.7837 285.911 19.0077 286.243C20.0077 286.514 20.8347 287.201 21.7667 287.653C22.6987 288.104 23.9217 288.276 24.6907 287.583C23.9207 287.212 23.0507 287.119 22.2237 286.901C21.3967 286.683 20.5477 286.286 20.1377 285.535C20.0597 285.393 19.9997 285.226 20.0497 285.072C20.0887 284.953 20.1877 284.863 20.2937 284.797C20.7937 284.485 21.4477 284.603 21.9947 284.823C22.5417 285.042 23.0657 285.355 23.6527 285.413C24.0867 285.456 24.5337 285.356 24.9557 285.464C25.7697 285.673 26.2477 286.582 27.0537 286.819C27.4897 286.947 27.9577 286.859 28.4007 286.76C29.4237 286.533 30.4657 286.242 31.4637 285.923C33.4397 283.921 36.2197 282.734 39.0327 282.691C39.2617 282.687 39.4997 282.689 39.7057 282.589C39.8837 282.502 40.0187 282.347 40.1437 282.194C40.9457 281.216 41.9227 279.985 43.1597 280.247C44.3117 280.491 44.7697 281.875 44.9177 283.043C45.0657 284.212 45.2227 285.575 46.2317 286.183C47.6937 287.064 49.7887 285.636 51.2187 286.568C51.6107 286.823 51.9047 287.237 52.3467 287.389C53.3237 287.725 54.1677 286.642 55.1387 286.288C56.3857 285.833 57.7087 286.633 58.7947 287.397C60.4437 288.556 62.0927 289.715 63.7417 290.874C64.8017 291.619 65.8797 292.381 66.6717 293.406C67.1867 294.073 67.6807 294.913 68.5147 295.031C69.0517 295.107 69.7277 294.894 70.0557 295.326C70.2077 295.526 70.2147 295.799 70.3137 296.03C70.4507 296.349 70.7517 296.563 71.0377 296.76C72.8067 297.977 74.6877 299.234 76.8297 299.389C76.9247 299.126 77.0187 298.863 77.1137 298.6C76.8437 298.705 76.5737 298.811 76.3047 298.916C75.4307 297.803 74.7007 296.577 74.1397 295.277C73.4977 295.76 72.4007 295.088 72.5397 294.297C72.5677 294.139 72.6327 293.977 72.5867 293.824C72.5297 293.634 72.3287 293.534 72.1677 293.417C71.6677 293.053 71.4807 292.316 71.7467 291.758C71.1777 291.872 70.5747 291.809 70.0417 291.58C70.4417 291.278 70.7477 290.855 70.9077 290.38C70.4417 290.355 70.0187 289.979 69.9377 289.52C69.8567 289.061 70.1277 288.563 70.5567 288.381C70.1097 287.943 69.6467 287.479 69.4647 286.881C69.2827 286.283 69.4957 285.515 70.0807 285.293C70.2067 285.245 70.3537 285.218 70.4317 285.108C70.5077 285.003 70.4907 284.859 70.4717 284.731C70.3207 283.748 70.1707 282.765 70.0207 281.781C69.9767 281.512 69.9317 281.23 69.7837 280.997Z" fill="#828F60"/>
<path d="M13.8383 244.618C14.1563 244.962 14.5523 245.223 14.9103 245.525C15.4923 245.172 16.3063 245.259 16.8013 245.726C16.3243 246.997 16.1103 248.366 16.1763 249.721C16.4713 249.319 17.0263 249.202 17.5243 249.228C18.0223 249.253 18.5153 249.387 19.0133 249.358C20.1763 249.289 21.0853 248.37 21.8733 247.512C22.1933 247.163 22.5313 246.656 22.2703 246.262C22.1353 246.057 21.8813 245.972 21.6463 245.9C21.0643 245.722 20.4823 245.543 19.9003 245.365C19.5623 245.261 19.1763 245.11 19.0803 244.77C18.9973 244.477 19.1823 244.167 19.4233 243.981C19.6643 243.795 19.9593 243.694 20.2223 243.54C21.0383 243.062 21.4883 242.031 21.2843 241.107C20.6013 241.733 19.7933 242.223 18.9223 242.539C18.7263 242.61 18.5203 242.673 18.3133 242.654C17.9293 242.618 17.6333 242.316 17.3473 242.057C16.8083 241.569 15.7743 240.805 14.8433 240.659C14.2623 241.539 13.7083 242.431 13.1953 243.341C13.3253 243.847 13.5553 244.311 13.8383 244.618Z" fill="#828F60"/>
<path d="M27.9664 232.684C28.2244 231.593 28.7874 230.595 29.4424 229.685C29.6794 229.355 29.9344 229.026 30.0524 228.637C30.2544 227.974 30.0234 227.281 29.6914 226.654C26.7034 228.386 23.8674 230.485 21.2584 232.975C19.9604 234.215 18.7644 235.52 17.6484 236.871C19.9134 237.543 21.9944 238.75 23.6314 240.465C23.9254 240.773 24.2124 241.1 24.5824 241.312C24.8874 241.486 25.2334 241.572 25.5754 241.656C26.7944 241.955 28.0134 242.255 29.2324 242.554C29.4674 242.612 29.7054 242.67 29.9474 242.658C30.8574 242.616 31.4154 241.673 31.8034 240.849C31.9064 240.632 32.0114 240.4 31.9864 240.161C31.9704 240.007 31.9014 239.863 31.8254 239.728C30.9744 238.227 29.1674 237.458 28.3254 235.952C27.7764 234.973 27.7074 233.775 27.9664 232.684Z" fill="#828F60"/>
<path d="M52.6222 235.472C52.5002 235.881 52.2522 236.238 52.0542 236.616C51.3852 237.893 51.2932 239.383 51.2152 240.823C51.2082 240.953 51.2022 241.091 51.2652 241.206C51.3422 241.346 51.5012 241.416 51.6492 241.476C52.1172 241.667 52.5842 241.858 53.0522 242.049C53.2892 241.694 53.4632 241.302 53.6372 240.912C54.1952 239.656 54.7612 238.371 54.8842 237.002C55.0052 235.654 54.6902 234.288 54.8872 232.949C54.9172 232.747 54.9602 232.541 55.0762 232.372C55.2282 232.15 55.4812 232.024 55.7182 231.897C56.5982 231.427 57.4042 230.82 58.1002 230.106C58.8002 229.387 59.4312 228.528 60.3702 228.173C61.2272 227.849 62.1852 228.008 63.0942 227.891C64.7302 227.68 66.1082 226.595 67.3082 225.463C67.8002 224.999 68.2842 224.493 68.6972 223.947C64.2352 222.137 59.5382 221.072 54.7942 220.77C54.1582 221.874 53.2782 222.883 52.7822 224.058C52.3932 224.979 52.1162 225.078 51.2902 225.529C50.4962 225.962 50.0822 226.663 49.6892 227.455C49.6042 227.625 49.5182 227.801 49.5052 227.991C49.4582 228.659 50.2972 229.137 50.2632 229.805C50.2522 230.017 50.1522 230.212 50.0692 230.406C49.7972 231.037 49.6812 231.722 49.5662 232.4C49.4902 232.852 49.4132 233.317 49.5042 233.767C49.5952 234.217 49.8902 234.655 50.3322 234.78C50.8772 234.195 51.8462 233.71 52.4132 234.274C52.7142 234.573 52.7442 235.063 52.6222 235.472Z" fill="#828F60"/>
<path d="M51.989 317.115C51.577 317.115 51.165 317.111 50.752 317.102C36.871 316.779 23.946 311.071 14.358 301.028C-5.434 280.296 -4.669 247.326 16.064 227.535C24.163 219.804 34.299 214.974 45.375 213.568L45.807 216.972C35.463 218.284 25.997 222.795 18.432 230.017C-0.932003 248.503 -1.647 279.296 16.839 298.659C25.794 308.04 37.866 313.372 50.831 313.672C63.808 313.982 76.102 309.208 85.482 300.252L87.851 302.733C78.108 312.035 65.414 317.115 51.989 317.115Z" fill="#B5915F"/>
<path d="M172.496 114.324C166.799 115.105 165.762 116.259 165.12 123.113C165.096 123.37 164.72 123.37 164.696 123.113C164.055 116.259 163.018 115.105 157.32 114.324C157.075 114.29 157.075 113.936 157.32 113.902C163.017 113.121 164.054 111.967 164.696 105.113C164.72 104.856 165.096 104.856 165.12 105.113C165.761 111.967 166.798 113.121 172.496 113.902C172.742 113.936 172.742 114.291 172.496 114.324Z" fill="white"/>
<path d="M359.946 47.6379C354.249 48.4189 353.212 49.5729 352.57 56.4269C352.546 56.6839 352.17 56.6839 352.146 56.4269C351.505 49.5729 350.468 48.4189 344.77 47.6379C344.525 47.6039 344.525 47.2499 344.77 47.2159C350.467 46.4349 351.504 45.2809 352.146 38.4269C352.17 38.1699 352.546 38.1699 352.57 38.4269C353.211 45.2809 354.248 46.4349 359.946 47.2159C360.191 47.2499 360.191 47.6049 359.946 47.6379Z" fill="white"/>
<path d="M128.723 226.451C119.384 227.732 117.684 229.623 116.633 240.858C116.594 241.279 115.977 241.279 115.938 240.858C114.887 229.623 113.187 227.732 103.848 226.451C103.446 226.396 103.446 225.815 103.848 225.76C113.187 224.479 114.887 222.588 115.938 211.353C115.977 210.932 116.594 210.932 116.633 211.353C117.684 222.588 119.384 224.479 128.723 225.76C129.126 225.815 129.126 226.396 128.723 226.451Z" fill="white"/>
<path d="M419.422 317.345C413.202 318.198 412.07 319.458 411.37 326.94C411.344 327.22 410.933 327.22 410.907 326.94C410.207 319.458 409.075 318.198 402.855 317.345C402.587 317.308 402.587 316.921 402.855 316.885C409.075 316.032 410.207 314.772 410.907 307.29C410.933 307.01 411.344 307.01 411.37 307.29C412.07 314.772 413.202 316.032 419.422 316.885C419.69 316.921 419.69 317.308 419.422 317.345Z" fill="white"/>
<path d="M140.494 74.976C161.198 74.976 177.982 58.1921 177.982 37.488C177.982 16.784 161.198 0 140.494 0C119.79 0 103.006 16.784 103.006 37.488C103.006 58.1921 119.79 74.976 140.494 74.976Z" fill="white"/>
<path d="M164.456 58.9089L177.599 88.3789L152.979 68.0829L164.456 58.9089Z" fill="white"/>
<path d="M150.992 19.2421C153.499 21.4721 154.757 24.5431 154.757 28.4531C154.757 32.3241 153.513 35.2771 151.021 37.3101C148.533 39.3451 145.235 40.3621 141.128 40.3621L140.892 44.9231H133.607L133.308 34.8511H135.974C139.412 34.8511 142.058 34.3981 143.915 33.4891C145.771 32.5801 146.697 30.9221 146.697 28.5131C146.697 26.7751 146.196 25.3941 145.188 24.3641C144.18 23.3391 142.806 22.8261 141.071 22.8261C139.253 22.8261 137.841 23.3201 136.833 24.3061C135.83 25.2941 135.324 26.6561 135.324 28.3941H127.504C127.465 25.9831 127.976 23.8311 129.047 21.9361C130.113 20.0391 131.679 18.5591 133.753 17.4931C135.831 16.4251 138.266 15.8921 141.072 15.8921C145.177 15.8941 148.484 17.0101 150.992 19.2421ZM133.514 57.6891C132.545 56.7631 132.063 55.6061 132.063 54.2251C132.063 52.8411 132.545 51.6871 133.514 50.7591C134.483 49.8311 135.717 49.3681 137.217 49.3681C138.678 49.3681 139.883 49.8311 140.833 50.7591C141.778 51.6871 142.255 52.8421 142.255 54.2251C142.255 55.6061 141.778 56.7631 140.833 57.6891C139.883 58.6191 138.678 59.0821 137.217 59.0821C135.718 59.0831 134.484 58.6201 133.514 57.6891Z" fill="#3B6E56"/>
<path d="M344.982 252.033C347.112 257.436 350.124 258.734 352.358 258.838V260.968C349.449 260.761 344.982 260.656 340.931 260.656C335.425 260.656 330.333 260.761 327.321 260.968V258.838C332.463 258.631 334.853 257.851 334.853 254.89C334.853 253.644 334.437 252.033 333.606 249.903L327.061 232.45H301.4L297.036 243.722C295.582 247.41 294.906 250.267 294.906 252.449C294.906 257.072 298.075 258.682 304.153 258.838V260.968C300.102 260.761 295.634 260.656 291.894 260.656C288.31 260.656 286.077 260.761 283.947 260.968V258.838C286.7 258.215 289.868 255.981 292.31 249.591L317.348 185.126H319.062L344.982 252.033ZM314.386 198.58L302.179 230.32H326.281L314.386 198.58Z" fill="#B5915F"/>
<path d="M367.931 292.127H390.372C403.67 292.127 406.319 287.036 407.825 272.232H410.267C410.059 274.466 409.903 277.53 409.903 280.958C409.903 283.607 410.162 289.166 410.682 294.568C402.786 294.256 391.93 294.256 384.191 294.256C375.775 294.256 366.01 294.256 357.906 294.568V292.438L402.267 221.687H379.931C366.633 221.687 363.984 226.778 362.477 241.583H360.036C360.243 239.349 360.347 236.285 360.347 232.856C360.347 230.207 360.14 224.648 359.62 219.246C367.464 219.558 378.321 219.558 386.112 219.558C394.163 219.558 404.189 219.558 411.929 219.246V221.376L367.931 292.127Z" fill="#B5915F"/>
<path d="M371.078 247.923H352.357V252.115H371.078V247.923Z" fill="#B5915F"/>
<path d="M57.98 101.57C58.487 102.877 59.1801 103.29 59.7001 103.317V103.864C58.6201 103.811 57.047 103.784 55.553 103.784C53.86 103.784 52.3001 103.811 51.3931 103.864V103.317C52.7001 103.264 53.313 103.064 53.313 102.317C53.313 101.997 53.206 101.57 52.993 101.024L51.3531 96.5441H45.4191L44.6861 98.4371C44.1661 99.7701 43.939 100.744 43.939 101.464C43.939 102.904 44.8721 103.277 46.3661 103.317V103.864C45.1261 103.811 44.099 103.784 42.966 103.784C42.166 103.784 41.419 103.811 40.873 103.864V103.317C41.673 103.17 42.473 102.464 43.246 100.45L49.4601 84.4761C49.7531 84.5031 50.0731 84.5161 50.4071 84.5161C50.7271 84.5161 51.06 84.5031 51.354 84.4761L57.98 101.57ZM48.4471 88.6501L45.62 95.9971H51.1541L48.4471 88.6501Z" fill="#FFEED4"/>
<path d="M51.7203 131.251C56.8273 131.638 58.5873 133.904 58.5873 136.118C58.5873 139.558 55.7343 141.412 51.0533 141.412C50.2003 141.412 48.5063 141.332 46.1863 141.332C44.5733 141.332 42.9063 141.359 41.9863 141.412V140.865C43.7193 140.785 44.0263 140.505 44.0263 138.518V124.971C44.0263 122.984 43.7063 122.704 41.9863 122.624V122.077C42.9063 122.13 44.5993 122.157 46.1333 122.157C47.9203 122.157 49.7333 122.104 50.4263 122.104C54.9333 122.104 57.1733 123.877 57.1733 126.397C57.1733 128.33 55.5333 130.49 51.7193 131.197L51.7203 131.251ZM48.3733 124.971V131.145H49.5463C52.1193 131.145 52.7463 129.065 52.7463 126.692C52.7463 124.012 51.9993 122.625 50.0663 122.625C48.6673 122.624 48.3733 123.091 48.3733 124.971ZM54.0543 135.998C54.0543 133.225 52.7613 131.611 49.5213 131.611H48.3743V138.518C48.3743 140.425 48.6943 140.785 50.2543 140.785C52.9203 140.785 54.0543 139.065 54.0543 135.998Z" fill="#FFEED4"/>
<path d="M56.6946 161.012C56.8946 161.172 57.0816 161.252 57.2276 161.252C57.6146 161.252 57.8276 160.745 57.9346 159.625H58.5616C58.4816 161.025 58.4546 162.905 58.4546 166.239H57.8146C57.5216 163.732 57.1746 162.412 55.7616 161.292C54.8546 160.412 53.6016 159.945 52.3086 159.945C48.3886 159.945 46.8686 164.518 46.8686 169.345C46.8686 174.238 48.5086 178.679 52.4156 178.679C53.6156 178.679 54.9356 178.239 55.8156 177.359C57.2286 176.266 57.5626 174.746 57.8156 172.079H58.4556C58.4556 175.546 58.4826 177.506 58.5626 178.959H57.9356C57.8286 177.839 57.6556 177.346 57.2686 177.346C57.1086 177.346 56.9216 177.426 56.6956 177.573C55.3626 178.52 54.0026 179.346 51.6556 179.346C45.8686 179.346 42.0156 175.706 42.0156 169.452C42.0156 163.345 46.0026 159.238 51.6826 159.238C54.0806 159.239 55.4946 160.092 56.6946 161.012Z" fill="#FFEED4"/>
<path d="M101.318 90.3611H68.0182C66.3932 90.3611 65.0762 89.0441 65.0762 87.4191C65.0762 85.7941 66.3932 84.4771 68.0182 84.4771H101.318C102.943 84.4771 104.26 85.7941 104.26 87.4191C104.261 89.0441 102.943 90.3611 101.318 90.3611Z" fill="white"/>
<path d="M123.323 98.4542H66.3952C65.6662 98.4542 65.0762 97.8632 65.0762 97.1352C65.0762 96.4062 65.6672 95.8162 66.3952 95.8162H123.323C124.052 95.8162 124.642 96.4072 124.642 97.1352C124.643 97.8632 124.052 98.4542 123.323 98.4542Z" fill="#FFEED4"/>
<path d="M123.323 104.482H66.3952C65.6662 104.482 65.0762 103.891 65.0762 103.163C65.0762 102.434 65.6672 101.844 66.3952 101.844H123.323C124.052 101.844 124.642 102.435 124.642 103.163C124.643 103.892 124.052 104.482 123.323 104.482Z" fill="#FFEED4"/>
<path d="M123.323 110.511H66.3952C65.6662 110.511 65.0762 109.92 65.0762 109.192C65.0762 108.463 65.6672 107.873 66.3952 107.873H123.323C124.052 107.873 124.642 108.464 124.642 109.192C124.643 109.92 124.052 110.511 123.323 110.511Z" fill="#FFEED4"/>
<path d="M101.318 127.962H68.0182C66.3932 127.962 65.0762 126.645 65.0762 125.02C65.0762 123.395 66.3932 122.078 68.0182 122.078H101.318C102.943 122.078 104.26 123.395 104.26 125.02C104.261 126.645 102.943 127.962 101.318 127.962Z" fill="white"/>
<path d="M123.323 136.055H66.3952C65.6662 136.055 65.0762 135.464 65.0762 134.736C65.0762 134.007 65.6672 133.417 66.3952 133.417H123.323C124.052 133.417 124.642 134.008 124.642 134.736C124.643 135.465 124.052 136.055 123.323 136.055Z" fill="#FFEED4"/>
<path d="M123.323 142.084H66.3952C65.6662 142.084 65.0762 141.493 65.0762 140.765C65.0762 140.036 65.6672 139.446 66.3952 139.446H123.323C124.052 139.446 124.642 140.037 124.642 140.765C124.643 141.493 124.052 142.084 123.323 142.084Z" fill="#FFEED4"/>
<path d="M123.323 148.112H66.3952C65.6662 148.112 65.0762 147.521 65.0762 146.793C65.0762 146.064 65.6672 145.474 66.3952 145.474H123.323C124.052 145.474 124.642 146.065 124.642 146.793C124.643 147.521 124.052 148.112 123.323 148.112Z" fill="#FFEED4"/>
<path d="M101.318 165.123H68.0182C66.3932 165.123 65.0762 163.806 65.0762 162.181C65.0762 160.556 66.3932 159.239 68.0182 159.239H101.318C102.943 159.239 104.26 160.556 104.26 162.181C104.261 163.806 102.943 165.123 101.318 165.123Z" fill="white"/>
<path d="M123.323 173.216H66.3952C65.6662 173.216 65.0762 172.625 65.0762 171.897C65.0762 171.168 65.6672 170.578 66.3952 170.578H123.323C124.052 170.578 124.642 171.169 124.642 171.897C124.643 172.626 124.052 173.216 123.323 173.216Z" fill="#FFEED4"/>
<path d="M123.323 179.245H66.3952C65.6662 179.245 65.0762 178.654 65.0762 177.926C65.0762 177.197 65.6672 176.607 66.3952 176.607H123.323C124.052 176.607 124.642 177.198 124.642 177.926C124.643 178.654 124.052 179.245 123.323 179.245Z" fill="#FFEED4"/>
<path d="M123.323 185.273H66.3952C65.6662 185.273 65.0762 184.682 65.0762 183.954C65.0762 183.225 65.6672 182.635 66.3952 182.635H123.323C124.052 182.635 124.642 183.226 124.642 183.954C124.643 184.683 124.052 185.273 123.323 185.273Z" fill="#FFEED4"/>
<path d="M210.143 131.334L206.943 127.77L199.407 131.796C192.148 135.674 186.457 141.946 183.3 149.546L172.68 175.112C172.68 175.112 190.95 177.897 200.977 185.404L210.143 131.334Z" fill="#3B6E56"/>
<path d="M211.723 219.799C211.723 219.799 190.275 215.784 167.136 212.727C152.576 210.804 139.727 222.356 140.175 237.036C140.769 256.483 142.463 283.747 147.036 309.939H181.867L182.25 256.736L239.682 241.043L211.723 219.799Z" fill="#26314A"/>
<path d="M154.328 356.157C154.328 353.936 154.107 353.936 154.107 351.715C154.107 349.494 154.679 349.494 154.679 347.273C154.679 345.056 154.469 345.056 154.469 342.839C154.469 340.622 154.008 340.622 154.008 338.406C154.008 336.19 154.271 336.19 154.271 333.973C154.271 331.756 154.591 331.756 154.591 329.539C154.591 327.322 154.413 327.322 154.413 325.105H177.081C177.081 327.322 177.259 327.322 177.259 329.539C177.259 331.756 176.939 331.756 176.939 333.973C176.939 336.189 176.676 336.189 176.676 338.406C176.676 340.623 177.137 340.623 177.137 342.839C177.137 345.056 177.347 345.056 177.347 347.273C177.347 349.494 176.775 349.494 176.775 351.715C176.775 353.936 176.996 353.936 176.996 356.157H154.328Z" fill="#B5915F"/>
<path d="M154.656 346.186C154.67 346.488 154.679 346.828 154.679 347.273C154.679 347.55 154.67 347.792 154.654 348.008C162.196 348.722 169.786 348.701 177.324 347.947C177.337 347.745 177.346 347.527 177.346 347.273C177.346 346.799 177.335 346.439 177.32 346.125C169.785 346.879 162.196 346.9 154.656 346.186Z" fill="#3B4C73"/>
<path d="M154.463 342.579C154.465 342.669 154.47 342.741 154.47 342.839C154.47 343.54 154.492 344.009 154.521 344.407C162.06 345.13 169.649 345.118 177.187 344.373C177.16 343.982 177.139 343.52 177.139 342.839C177.139 342.732 177.133 342.653 177.131 342.556C169.592 343.297 162.003 343.305 154.463 342.579Z" fill="#3B4C73"/>
<path d="M154.203 335.592C154.146 336.194 154.072 336.642 154.033 337.398C161.57 338.152 169.158 338.173 176.698 337.459C176.735 336.676 176.811 336.224 176.868 335.62C169.33 336.345 161.741 336.335 154.203 335.592Z" fill="#3B4C73"/>
<path d="M154.394 332.022C154.332 332.474 154.279 332.992 154.273 333.832C161.812 334.571 169.401 334.575 176.941 333.846C176.946 332.99 177 332.469 177.063 332.012C169.524 332.75 161.934 332.753 154.394 332.022Z" fill="#3B4C73"/>
<path d="M149.14 349.515V348.851C149.14 346.634 150.826 344.78 153.033 344.57L153.242 344.55C155.276 344.357 157.09 345.671 157.699 347.621C158.079 348.837 158.591 350.003 159.244 351.115C160.559 353.354 163.202 354.431 165.715 353.775C170.219 352.6 174.393 350.919 178.197 348.674C179.229 348.065 180.495 349.074 180.068 350.194C179.801 350.894 179.331 351.554 178.517 351.945C181.962 354.529 182.44 362.279 182.058 370.126H120.051C120.053 370.092 120.055 370.058 120.057 370.024C120.408 364.712 124.765 360.532 130.076 360.168C130.794 360.119 131.536 360.102 132.297 360.11C134.304 360.132 136.261 359.52 137.867 358.315C140.269 356.513 143.11 354.985 146.308 353.68C148.009 352.989 149.14 351.353 149.14 349.515Z" fill="#63451D"/>
<path d="M117.85 370.127V378.069H138.726C141.303 378.069 143.87 377.741 146.364 377.093L161.388 373.189V378.069H183.588V370.127H117.85Z" fill="#26314A"/>
<path d="M146.037 309.938H183.274C184.348 309.938 185.153 310.922 184.941 311.974L183.54 318.914L182.991 323.538C182.748 325.59 181.008 327.135 178.942 327.135H149.146C146.925 327.135 145.219 325.169 145.532 322.97L146.08 319.123L144.352 312.086C144.082 310.994 144.91 309.938 146.037 309.938Z" fill="#26314A"/>
<path d="M202.728 185.403C202.728 185.403 190.359 218.51 169.619 215.971C151.055 213.698 150.098 177.552 150.098 177.552L183.207 172.99L202.728 185.403Z" fill="#EB836A"/>
<path d="M183.208 172.99L172.682 174.44V186.451C183.297 192.332 190.038 202.83 183.17 212.499C195.626 204.389 202.728 185.403 202.728 185.403L183.208 172.99Z" fill="#26314A"/>
<path d="M281.48 216.11L284.042 232.165C286.759 249.188 276.078 265.289 259.731 269.647C257.987 270.112 256.181 270.3 254.376 270.325L202.727 271.022C202.727 271.022 195.107 285.634 189.922 282.763L145.531 322.972L116.287 304.389L157.245 251.055C167.148 238.43 181.557 230.132 197.447 227.903L281.48 216.11Z" fill="#E66D1E"/>
<path d="M145.531 322.972L153.415 315.83L117.954 302.218L116.287 304.388L145.531 322.972Z" fill="#26314A"/>
<path d="M135.346 305.989C136.859 303.537 138.638 301.162 140.843 299.287C143.055 297.435 145.391 295.941 147.502 294.153C149.643 292.402 151.582 290.409 153.415 288.318L159.026 282.1C162.773 277.964 166.525 273.826 170.08 269.543C171.877 267.423 173.472 265.127 175.437 263.062C177.413 261.01 179.775 259.328 182.361 258.092H182.362C182.413 258.067 182.466 258.052 182.52 258.045L182.55 258.042C189.099 257.273 195.606 256.174 202.025 254.683C208.443 253.187 214.757 251.269 220.968 249.068C227.167 246.833 233.273 244.305 239.164 241.323C242.111 239.837 245.003 238.241 247.841 236.553L249.961 235.274C250.3 235.063 250.701 234.842 250.986 234.64C251.265 234.434 251.297 234.263 251.21 233.901C251.123 233.571 250.875 233.106 250.939 232.502C250.979 231.914 251.305 231.364 251.704 231.032C252.506 230.348 253.44 230.135 254.35 230.269H254.352L254.136 230.737C252.476 227.89 251.985 224.313 252.913 220.989L252.915 220.982C253.046 220.513 253.533 220.238 254.002 220.369C254.471 220.5 254.746 220.987 254.615 221.456C254.606 221.488 254.593 221.524 254.581 221.554C253.456 224.29 253.467 227.588 254.719 230.438C254.777 230.569 254.736 230.718 254.63 230.804L254.503 230.906L254.501 230.907C253.819 231.444 253.127 231.757 252.648 232.141C252.164 232.531 251.931 232.773 252.048 233.788C252.061 234.022 252.052 234.303 251.951 234.585C251.844 234.871 251.628 235.089 251.439 235.234C251.051 235.514 250.722 235.688 250.362 235.919L248.243 237.224C245.411 238.955 242.502 240.552 239.585 242.138C233.724 245.255 227.669 248.029 221.443 250.361C215.225 252.719 208.828 254.592 202.349 256.084C195.871 257.582 189.294 258.67 182.672 259.252L182.859 259.202C180.352 260.25 178.049 261.803 176.099 263.718C174.142 265.636 172.491 267.909 170.67 270.036C167.055 274.311 163.222 278.368 159.539 282.561L153.981 288.818C152.149 290.933 150.203 292.968 148.124 294.873C146.052 296.784 143.714 298.394 141.834 300.346C139.914 302.257 138.552 304.598 137.521 307.103C137.263 307.73 136.546 308.029 135.919 307.771C135.292 307.513 134.993 306.796 135.251 306.169C135.279 306.108 135.313 306.043 135.346 305.989Z" fill="#26314A"/>
<path d="M216.922 225.169L216.689 225.611C225.873 231.943 275.051 221.546 283.267 227.307L281.48 216.11L216.922 225.169Z" fill="#26314A"/>
<path d="M268.945 134.884C262.534 129.037 242.878 121.573 230.171 119.851C230.171 119.851 217.326 123.12 206.935 127.774C202.316 129.843 198.946 133.952 197.807 138.883C196.366 145.124 195.359 154.082 198.804 161.189C198.804 161.189 197.225 182.57 201.962 193.769C200.383 201.522 201.962 209.417 201.962 209.417C201.962 209.417 195.359 208.269 195.072 211.57C194.893 213.633 198.918 217.939 205.537 221.685C212.609 225.687 220.899 226.944 228.908 225.57C240.935 223.507 262.73 220.244 280.006 220.296C287.968 220.32 286.428 211.702 282.338 207.853C279.97 205.625 278.494 202.611 277.867 199.421L273.741 178.447L268.945 134.884Z" fill="white"/>
<path d="M199.672 185.257C200.187 188.362 200.922 191.311 201.961 193.768C201.946 193.841 201.936 193.914 201.922 193.987C227.097 196.612 252.503 196.232 277.612 192.866L276.621 184.503C251.093 187.936 225.248 188.185 199.672 185.257Z" fill="#EBD0A9"/>
<path d="M272.034 154.203L270.704 145.887C246.135 149.125 221.238 148.991 196.696 145.497C196.418 148.238 196.369 151.148 196.743 154.005C221.72 157.448 247.043 157.518 272.034 154.203Z" fill="#EBD0A9"/>
<path d="M275.117 173.493L273.787 165.177C248.84 168.512 223.571 168.624 198.606 165.479C198.542 167.732 198.515 170.7 198.629 173.956C224.036 177.064 249.739 176.904 275.117 173.493Z" fill="#EBD0A9"/>
<path d="M241.564 185.273C241.564 185.273 241.707 180.011 243.305 175.875C244.028 174.004 244.327 172 244.35 169.994C244.423 163.491 245.761 156.357 247.635 152.971C248.128 152.079 248.456 151.116 248.599 150.107C249.299 145.172 252.691 139.258 256.87 135.36C260.521 131.955 266.268 132.06 269.77 135.619C275.633 141.578 278.881 149.213 276.082 161.637C275.668 163.473 275.867 165.389 276.519 167.155C278.976 173.811 277.658 179.19 276.714 181.705C276.321 182.752 276.29 183.892 276.607 184.965C277.141 186.771 277.789 189.697 277.366 192.24L243.588 189.601L241.564 185.273Z" fill="#3B6E56"/>
<path d="M247.307 181.369C247.449 181.527 247.971 181.716 248.443 181.806C248.942 181.897 249.458 181.972 249.988 182.014C251.045 182.091 252.124 182.107 253.203 182.11C255.363 182.099 257.533 181.988 259.707 181.918C261.88 181.805 264.059 181.745 266.254 181.738C267.352 181.736 268.455 181.766 269.567 181.858C270.683 181.938 271.803 182.088 272.964 182.431C273.413 182.564 273.67 183.036 273.537 183.485C273.404 183.934 272.932 184.191 272.483 184.058C272.452 184.049 272.422 184.038 272.393 184.026L272.367 184.015C270.557 183.246 268.345 183.052 266.223 182.926C264.075 182.813 261.91 182.869 259.743 182.914L253.225 183.185C252.133 183.23 251.038 183.262 249.926 183.231C249.371 183.229 248.806 183.194 248.23 183.132C247.646 183.025 247.058 183 246.327 182.492L246.322 182.489C245.982 182.253 245.898 181.785 246.134 181.445C246.37 181.105 246.838 181.021 247.178 181.257C247.225 181.288 247.27 181.328 247.307 181.369Z" fill="#26314A"/>
<path d="M247.563 176.909C248.546 176.477 249.518 175.932 250.455 175.37C251.384 174.787 252.303 174.184 253.162 173.508C254.011 172.823 254.862 172.135 255.594 171.342C256.331 170.56 257.003 169.721 257.485 168.815L257.493 168.8C257.698 168.415 258.176 168.269 258.561 168.474C258.946 168.679 259.092 169.157 258.887 169.542C258.87 169.574 258.848 169.609 258.827 169.638C257.404 171.58 255.667 173.063 253.859 174.423C252.956 175.105 252.031 175.747 251.088 176.365C250.148 176.994 249.208 177.588 248.224 178.194C247.883 178.404 247.437 178.298 247.227 177.957C247.017 177.616 247.123 177.17 247.464 176.96C247.492 176.943 247.52 176.928 247.549 176.915L247.563 176.909Z" fill="#26314A"/>
<path d="M230.171 119.851C230.171 119.851 221.221 122.13 212.219 125.59C213.08 131.291 216.35 137.242 222.604 137.494C230.304 137.805 238.907 130.213 240.136 122.571C240.168 122.37 240.178 122.173 240.202 121.973C236.645 121.005 233.209 120.263 230.171 119.851Z" fill="#3B6E56"/>
<path d="M207.239 211.768L208.756 213.31C209.017 213.559 209.255 213.837 209.536 214.063L210.385 214.735C210.962 215.167 211.494 215.676 212.12 216.04L213.99 217.151L214.459 217.428L214.957 217.648L215.954 218.089C216.624 218.368 217.268 218.725 217.981 218.893L220.08 219.505C220.779 219.714 221.512 219.779 222.227 219.923C227.997 220.949 233.953 220.301 239.66 219.022C245.393 217.731 250.936 215.7 256.337 213.39L260.37 211.606L264.325 209.648C265.65 209.012 266.945 208.313 268.236 207.607L272.107 205.491L272.139 205.474C272.719 205.157 273.446 205.37 273.763 205.95C274.08 206.53 273.867 207.257 273.287 207.574C273.267 207.585 273.244 207.596 273.224 207.606C267.847 210.147 262.482 212.703 256.918 214.813C251.369 216.935 245.705 218.804 239.875 220.028C234.054 221.241 228.005 221.662 222.094 220.702C219.13 220.276 216.272 219.261 213.551 218.001C210.836 216.676 208.423 214.833 206.16 212.81C205.851 212.534 205.825 212.06 206.101 211.751C206.377 211.442 206.851 211.416 207.16 211.692C207.172 211.702 207.183 211.713 207.193 211.724L207.239 211.768Z" fill="#EBD0A9"/>
<path d="M155.17 137.314C155.17 137.314 163.495 126.597 185.025 130.329V147.745L155.17 137.314Z" fill="white"/>
<path d="M142.605 142.501L140.242 127.769C140.242 127.769 151.438 127.075 155.17 137.313C159.954 133.772 178.623 127.958 187.609 137.313L195.067 192.239L192.776 193.253L142.605 142.501Z" fill="#FFEED4"/>
<path d="M193.043 195.095C183.654 189.86 172.785 189.86 164.91 195.095C162.236 176.603 159.561 158.11 156.887 139.618C164.762 134.383 175.631 134.383 185.02 139.618C187.694 158.11 190.368 176.603 193.043 195.095Z" fill="#CC4E4E"/>
<path d="M161.655 195.095C156.407 188.21 150.832 186.255 147.226 190.035C144.326 171.199 142.102 153.394 139.203 134.558C142.809 130.778 148.384 132.733 153.632 139.618C156.532 158.454 158.756 176.259 161.655 195.095Z" fill="#CC4E4E"/>
<path d="M153.633 139.618H156.887L164.91 195.095H161.656L153.633 139.618Z" fill="#26314A"/>
<path d="M93.3281 343.029C94.6521 341.246 94.4751 341.115 95.7991 339.332C97.1231 337.549 97.5831 337.891 98.9071 336.108C100.229 334.328 100.06 334.203 101.383 332.423C102.705 330.644 102.335 330.369 103.657 328.589C104.979 326.81 105.19 326.967 106.511 325.188C107.833 323.408 108.09 323.599 109.412 321.82C110.734 320.04 110.591 319.934 111.913 318.155L130.109 331.674C128.787 333.454 128.93 333.56 127.608 335.339C126.286 337.119 126.029 336.928 124.707 338.707C123.385 340.486 123.174 340.329 121.853 342.108C120.531 343.887 120.901 344.162 119.579 345.942C118.257 347.722 118.426 347.847 117.103 349.627C115.779 351.41 115.319 351.068 113.995 352.851C112.671 354.634 112.848 354.765 111.524 356.548L93.3281 343.029Z" fill="#B5915F"/>
<path d="M99.5382 335.222C99.3692 335.473 99.1742 335.752 98.9092 336.109C98.7442 336.331 98.5922 336.52 98.4512 336.685C104.079 341.756 110.184 346.266 116.685 350.156C116.816 350.001 116.954 349.832 117.105 349.629C117.388 349.249 117.593 348.953 117.769 348.692C111.268 344.8 105.164 340.291 99.5382 335.222Z" fill="#3B4C73"/>
<path d="M101.533 332.21C101.481 332.283 101.442 332.344 101.384 332.423C100.966 332.985 100.704 333.375 100.49 333.712C106.111 338.788 112.21 343.305 118.704 347.202C118.915 346.872 119.174 346.489 119.58 345.942C119.644 345.856 119.687 345.789 119.743 345.71C113.249 341.81 107.152 337.29 101.533 332.21Z" fill="#3B4C73"/>
<path d="M105.492 326.447C105.087 326.897 104.76 327.212 104.279 327.795C109.879 332.895 115.958 337.438 122.436 341.361C122.932 340.754 123.263 340.437 123.67 339.986C117.186 336.073 111.1 331.539 105.492 326.447Z" fill="#3B4C73"/>
<path d="M107.775 323.696C107.456 324.022 107.105 324.406 106.598 325.077C112.209 330.166 118.299 334.696 124.786 338.607C125.301 337.923 125.655 337.537 125.978 337.208C119.487 333.303 113.392 328.779 107.775 323.696Z" fill="#3B4C73"/>
<path d="M93.1254 334.605L93.5214 334.072C94.8434 332.292 97.3024 331.81 99.1994 332.958L99.3794 333.067C101.127 334.125 101.799 336.262 101.125 338.19C100.704 339.393 100.42 340.634 100.281 341.916C100.001 344.498 101.481 346.938 103.889 347.91C108.205 349.653 112.558 350.793 116.951 351.259C118.142 351.385 118.557 352.95 117.547 353.595C116.915 353.998 116.144 354.247 115.258 354.075C116.482 358.203 112.244 364.71 107.257 370.781L57.4824 333.802C57.5044 333.776 57.5264 333.75 57.5484 333.724C60.9974 329.67 66.9884 328.912 71.4684 331.788C72.0734 332.177 72.6794 332.606 73.2854 333.066C74.8834 334.281 76.8194 334.957 78.8264 334.947C81.8294 334.933 85.0214 335.401 88.3664 336.261C90.1464 336.718 92.0294 336.08 93.1254 334.605Z" fill="#63451D"/>
<path d="M55.7155 332.489L50.9785 338.864L67.7355 351.314C69.8045 352.851 72.0605 354.118 74.4495 355.086L88.8375 360.912L85.9275 364.829L103.748 378.069L108.485 371.694L55.7155 332.489Z" fill="#26314A"/>
<path d="M181.515 254.931C182.082 256.189 182.864 257.338 183.78 258.396C184.663 259.478 185.7 260.427 186.779 261.325C188.973 263.091 191.486 264.464 194.098 265.664C194.345 265.776 194.455 266.067 194.343 266.315C194.239 266.544 193.979 266.654 193.745 266.58C190.939 265.677 188.223 264.348 185.853 262.491C184.66 261.575 183.58 260.5 182.651 259.304C181.733 258.111 180.946 256.754 180.566 255.254C180.498 254.985 180.661 254.712 180.93 254.644C181.17 254.583 181.413 254.706 181.511 254.925L181.515 254.931Z" fill="#26314A"/>
<path d="M178.809 258.318C179.018 259.303 179.131 260.283 179.268 261.271C179.398 262.259 179.591 263.244 179.846 264.215C180.11 265.183 180.391 266.156 180.758 267.103C181.12 268.051 181.524 268.99 181.983 269.912C182.018 269.982 181.99 270.068 181.919 270.103C181.858 270.134 181.785 270.116 181.744 270.064C181.094 269.25 180.501 268.382 179.983 267.468C179.47 266.552 178.988 265.607 178.612 264.618C178.226 263.632 177.901 262.619 177.64 261.585C177.386 260.551 177.236 259.483 177.313 258.413C177.343 257.996 177.705 257.683 178.121 257.713C178.465 257.738 178.738 257.989 178.807 258.31L178.809 258.318Z" fill="#26314A"/>
<path d="M246.611 229.623C247.54 230.711 248.557 231.717 249.611 232.681C250.682 233.626 251.774 234.551 252.928 235.393C255.212 237.109 257.627 238.656 260.171 239.947C260.541 240.135 260.688 240.587 260.501 240.956C260.314 241.325 259.861 241.473 259.492 241.286C259.464 241.272 259.433 241.253 259.408 241.237C257.003 239.598 254.639 237.927 252.346 236.158C251.213 235.258 250.067 234.374 248.954 233.447L245.571 230.702L245.564 230.696C245.241 230.434 245.192 229.96 245.454 229.637C245.716 229.314 246.19 229.265 246.513 229.527C246.548 229.555 246.582 229.59 246.611 229.623Z" fill="#26314A"/>
<path d="M251.275 228.95C252.502 229.58 253.824 229.959 255.163 230.23C256.5 230.511 257.85 230.73 259.207 230.884C261.922 231.18 264.667 231.188 267.371 230.893C267.783 230.848 268.153 231.146 268.198 231.557C268.243 231.969 267.945 232.339 267.534 232.384C267.515 232.386 267.493 232.387 267.474 232.388C264.661 232.47 261.853 232.328 259.078 231.962C257.69 231.785 256.31 231.544 254.945 231.238C253.581 230.922 252.229 230.587 250.822 230.377C250.407 230.317 250.118 229.932 250.178 229.517C250.238 229.102 250.623 228.813 251.038 228.873C251.119 228.885 251.204 228.914 251.275 228.95Z" fill="#26314A"/>
<path d="M234.503 121.381C238.196 126.502 223.761 136.913 220.067 131.792L208.117 115.222L222.553 104.811L234.503 121.381Z" fill="#EB836A"/>
<path d="M223.576 113.637C220.695 114.888 217.891 116.317 215.185 117.912C214.501 118.315 213.852 118.778 213.243 119.287C212.771 119.681 212.302 120.119 212.08 120.706C212.081 120.712 212.081 120.717 212.082 120.723L214.989 124.753C216.278 126.54 219.061 126.563 220.182 124.666C220.189 124.653 220.197 124.641 220.204 124.628C220.494 124.122 220.646 123.541 220.973 123.057C221.472 122.318 222.31 121.897 223.008 121.342C225.211 119.587 225.91 116.2 224.581 113.717L223.576 113.637Z" fill="#26314A"/>
<path d="M195.861 88.9909L198.588 102.699C197.799 115.402 200.885 122.148 211.865 122.435C222.845 122.722 230.883 108.01 230.883 108.01L223.706 88.1299L195.861 88.9909Z" fill="#EB836A"/>
<path opacity="0.63" d="M216.173 113.083C218.293 113.083 220.012 111.364 220.012 109.244C220.012 107.124 218.293 105.405 216.173 105.405C214.053 105.405 212.334 107.124 212.334 109.244C212.334 111.364 214.053 113.083 216.173 113.083Z" fill="#CC4E4E"/>
<path d="M236.429 87.891L235.138 86.759C235.726 85.418 235.977 83.895 235.758 82.292C235.281 78.8 232.541 75.927 229.074 75.295C228.129 75.123 227.209 75.116 226.334 75.247C224.993 75.449 223.678 74.816 223.097 73.591C221.604 70.444 218.27 68.25 214.388 68.25C211.712 68.25 209.297 69.293 207.564 70.971C206.414 72.085 204.836 72.701 203.264 72.396C202.352 72.219 201.399 72.125 200.418 72.125C193.66 72.125 188.182 76.511 188.182 81.921C188.182 87.331 193.66 91.717 200.418 91.717C201.165 91.717 201.893 91.655 202.603 91.552C204.246 92.29 206.222 92.721 208.348 92.721C211.664 92.721 214.608 91.67 216.499 90.043C217.873 91.978 219.993 93.224 222.379 93.224C222.454 93.224 222.527 93.214 222.602 93.211C222.461 93.925 222.379 94.673 222.379 95.448C222.379 100.165 225.166 103.988 228.605 103.988C229.354 103.988 230.069 103.797 230.735 103.464L232.606 104.849L237.469 98.527C239.981 95.264 239.526 90.609 236.429 87.891Z" fill="#63451D"/>
<path d="M203.935 104.317C205.025 104.317 205.909 102.975 205.909 101.319C205.909 99.6633 205.025 98.321 203.935 98.321C202.845 98.321 201.961 99.6633 201.961 101.319C201.961 102.975 202.845 104.317 203.935 104.317Z" fill="#26314A"/>
<path d="M214.199 104.317C215.289 104.317 216.173 102.975 216.173 101.319C216.173 99.6633 215.289 98.321 214.199 98.321C213.108 98.321 212.225 99.6633 212.225 101.319C212.225 102.975 213.108 104.317 214.199 104.317Z" fill="#26314A"/>
<path d="M207.538 109.564H211.136C211.736 109.564 212.223 110.044 212.224 110.644C212.227 112.795 211.965 117.411 209.668 117.411C207.41 117.411 206.678 112.949 206.455 110.754C206.39 110.116 206.896 109.564 207.538 109.564Z" fill="#26314A"/>
<path d="M200.44 96.25C200.576 95.526 201.092 95.002 201.645 94.669C202.209 94.333 202.875 94.19 203.536 94.244C204.19 94.316 204.853 94.552 205.339 94.988C205.83 95.414 206.159 95.952 206.347 96.508C206.436 96.77 206.295 97.055 206.033 97.144C205.839 97.21 205.633 97.15 205.503 97.008L205.474 96.976C204.832 96.275 204.189 95.806 203.42 95.789C203.046 95.766 202.653 95.822 202.289 95.955C201.923 96.089 201.611 96.305 201.382 96.564L201.292 96.666C201.112 96.869 200.802 96.888 200.599 96.708C200.463 96.59 200.41 96.414 200.44 96.25Z" fill="#523918"/>
<path d="M216.755 96.564C216.525 96.304 216.213 96.088 215.848 95.955C215.484 95.822 215.091 95.766 214.717 95.789C213.948 95.806 213.305 96.275 212.663 96.976L212.634 97.008C212.447 97.212 212.13 97.226 211.926 97.039C211.775 96.901 211.728 96.691 211.79 96.508C211.978 95.952 212.307 95.414 212.798 94.988C213.284 94.552 213.947 94.316 214.601 94.244C215.262 94.191 215.928 94.333 216.492 94.669C217.045 95.002 217.561 95.526 217.697 96.25C217.747 96.516 217.572 96.773 217.305 96.823C217.129 96.856 216.958 96.791 216.847 96.666L216.755 96.564Z" fill="#523918"/>
<path d="M233.851 108.655C236.203 106.062 236.466 102.469 234.438 100.629C232.41 98.7889 228.859 99.3987 226.507 101.991C224.155 104.584 223.892 108.177 225.92 110.017C227.948 111.857 231.499 111.247 233.851 108.655Z" fill="#EB836A"/>
<path d="M209.068 99.6859C208.938 100.736 208.876 101.786 208.843 102.836L208.827 103.623C208.829 103.84 208.859 104.247 208.661 104.568C208.485 104.888 208.179 105.111 207.844 105.222C207.448 105.319 207.297 105.321 207.044 105.378C206.59 105.493 206.174 105.722 205.913 106.002C205.791 106.143 205.707 106.295 205.717 106.409C205.701 106.523 205.749 106.609 205.847 106.724C206.07 106.943 206.512 107.114 206.976 107.169C207.441 107.236 207.936 107.241 208.435 107.23L208.469 107.229C208.742 107.223 208.969 107.439 208.975 107.713C208.981 107.983 208.77 108.207 208.502 108.219L207.671 108.256C207.387 108.237 207.107 108.233 206.819 108.183C206.255 108.093 205.636 107.936 205.104 107.416C204.853 107.154 204.646 106.718 204.726 106.305C204.772 105.889 204.999 105.577 205.231 105.342C205.719 104.88 206.311 104.686 206.879 104.582L207.634 104.501C207.803 104.467 207.946 104.35 208.028 104.211C208.119 104.072 208.111 103.925 208.109 103.624L208.093 102.837C208.06 101.787 207.998 100.737 207.868 99.6869C207.827 99.3559 208.062 99.0539 208.393 99.0129C208.724 98.9719 209.026 99.207 209.067 99.538C209.074 99.587 209.073 99.6389 209.068 99.6859Z" fill="#CC4E4E"/>
<path d="M226.682 107.788C226.531 106.831 226.775 105.861 227.209 105.038C227.646 104.209 228.261 103.49 228.988 102.905C229.718 102.33 230.567 101.85 231.572 101.723C231.826 101.7 232.078 101.671 232.346 101.73C232.613 101.747 232.869 101.846 233.12 101.972C233.387 102.065 233.561 102.302 233.777 102.473C233.948 102.68 234.076 102.917 234.219 103.144C234.366 103.377 234.296 103.686 234.063 103.833C233.83 103.98 233.521 103.91 233.374 103.677C233.358 103.652 233.345 103.625 233.334 103.598L233.314 103.548C233.043 102.869 232.42 102.546 231.66 102.61C230.905 102.67 230.131 103.045 229.471 103.533C228.808 104.027 228.23 104.653 227.818 105.368C227.407 106.08 227.174 106.9 227.269 107.704C227.29 107.866 227.176 108.014 227.014 108.036C226.854 108.056 226.708 107.944 226.682 107.788Z" fill="#CC4E4E"/>
<path d="M230.398 106.125L229.943 102.658C229.926 102.531 230.016 102.414 230.143 102.398C230.258 102.383 230.365 102.455 230.396 102.564L231.368 105.923C231.444 106.187 231.292 106.462 231.029 106.539C230.765 106.615 230.49 106.463 230.413 106.2C230.406 106.175 230.401 106.149 230.398 106.125Z" fill="#CC4E4E"/>
<path d="M241.564 185.273L240.334 190.709L194.881 168.605C194.881 168.605 189.427 160.95 181.389 158.845C176.036 157.443 171.404 157.611 168.907 157.88C167.782 158.001 166.94 158.956 166.94 160.087C166.94 161.228 167.805 162.184 168.941 162.297L177.561 163.151L181.58 167.266C181.58 167.266 172.915 164.79 166.298 166.1C165.09 166.339 164.28 167.483 164.458 168.702C164.636 169.922 165.741 170.795 166.967 170.663C170.192 170.317 176.384 170.102 181.294 172.625C181.294 172.625 174.155 171.455 168.051 172.35C166.948 172.512 166.17 173.52 166.256 174.632C166.346 175.807 167.37 176.688 168.546 176.602L173.687 176.226L182.156 178.846C182.156 178.846 175.2 178.513 169.56 180.61C168.859 180.871 168.413 181.561 168.484 182.305C168.579 183.302 169.542 183.979 170.513 183.73L175.746 182.386L178.469 182.281C179.792 182.23 181.059 182.748 182.018 183.661C183.621 185.187 186.706 187.324 191.247 187.075C191.247 187.075 210.768 209.275 232.298 220.088C253.828 230.901 263.493 219.418 264.641 212.528C265.789 205.638 268.947 188.127 268.947 188.127C256.506 186.881 246.286 189.678 241.564 185.273Z" fill="#EB836A"/>
<path d="M240.334 190.709L250.866 196.01C252.078 196.62 253.251 195.112 252.355 194.093C250.166 191.604 246.351 189.114 240.334 190.709Z" fill="#CC4E4E"/>
<path d="M268.945 188.125C276.026 188.699 277.653 190.517 277.366 192.24C277.079 193.962 267.934 193.761 267.934 193.761L268.945 188.125Z" fill="#26314A"/>
<path d="M181.58 167.265C183.419 167.779 183.298 167.176 183.017 166.212C182.736 165.248 177.561 163.151 177.561 163.151L181.58 167.265Z" fill="#CC4E4E"/>
<path d="M145.647 179.462L145.435 177.725C145.335 176.902 145.728 176.101 146.448 175.69C148.316 174.623 151.692 172.445 151.221 170.877C150.575 168.724 144.26 172.989 144.26 172.989C144.26 172.989 153.105 166.284 151.266 163.628C149.427 160.973 143.327 168.221 143.327 168.221C148.207 162.982 152.083 159.752 150.863 158.03C149.643 156.308 145.696 159.322 142.251 162.982C142.251 162.982 141.926 158.804 144.611 157.144C145.406 156.652 145.711 155.642 145.391 154.764C144.933 153.506 143.386 152.999 142.312 153.797C140.695 155 138.63 157.414 137.515 162.192C133.424 172.241 139.188 179.175 145.647 179.462Z" fill="#EB836A"/>
<path d="M143.327 168.222C142.09 169.709 140.589 169.79 141.125 168.222C141.661 166.654 145.743 165.775 147.489 163.877C145.386 166.091 143.327 168.222 143.327 168.222Z" fill="#CC4E4E"/>
<path d="M144.678 172.717C143.19 173.586 142.13 173.488 143.537 172.202C144.944 170.916 148.269 169.561 149.016 168.715C146.606 171.046 145.817 172.052 144.678 172.717Z" fill="#CC4E4E"/>
<path d="M142.251 162.983C141.246 164.041 140.281 165.609 139.759 164.885C139.236 164.161 142.706 159.663 142.706 159.663C142.706 159.663 142.372 161.684 142.251 162.983Z" fill="#CC4E4E"/>
<path d="M116.628 302.493L146.809 320.367C148.671 321.469 148.799 324.116 147.053 325.394L140.393 330.268L137.33 333.471C135.809 335.061 133.406 335.422 131.486 334.35L107.855 321.157C105.386 319.778 104.624 316.582 106.206 314.238L111.016 307.112L112.831 303.587C113.547 302.197 115.284 301.697 116.628 302.493Z" fill="#E66D1E"/>
<path d="M261.879 65.708L244.945 78.682" stroke="white" stroke-width="3.4306" stroke-miterlimit="10" stroke-linecap="round" stroke-linejoin="round"/>
<path d="M248.291 52.0991L236.156 67.8891" stroke="white" stroke-width="3.4306" stroke-miterlimit="10" stroke-linecap="round" stroke-linejoin="round"/>
<path d="M231.644 42.4712L224.045 60.7792" stroke="white" stroke-width="3.4306" stroke-miterlimit="10" stroke-linecap="round" stroke-linejoin="round"/>
<path d="M213.071 37.48L210.324 58.223" stroke="white" stroke-width="3.4306" stroke-miterlimit="10" stroke-linecap="round" stroke-linejoin="round"/>
<path d="M193.84 37.4651L196.829 60.3021" stroke="white" stroke-width="3.4306" stroke-miterlimit="10" stroke-linecap="round" stroke-linejoin="round"/>
<path d="M0 378.069H419.624" stroke="#B5915F" stroke-width="1.8563" stroke-miterlimit="10"/>
<path d="M334.144 101.994C333.637 101.994 333.195 101.884 332.819 101.665C332.443 101.446 332.092 101.069 331.766 100.537L332.809 99.8879C332.947 100.107 333.091 100.286 333.242 100.424C333.392 100.555 333.546 100.653 333.702 100.715C333.865 100.778 334.035 100.809 334.21 100.809C334.398 100.809 334.571 100.765 334.727 100.678C334.89 100.59 335.019 100.468 335.113 100.311C335.213 100.148 335.263 99.9631 335.263 99.7563C335.263 99.5495 335.222 99.3739 335.141 99.2298C335.059 99.0856 334.944 98.9759 334.793 98.9007C334.643 98.8255 334.458 98.7879 334.238 98.7879C334.144 98.7879 334.041 98.8004 333.928 98.8255C333.822 98.8443 333.706 98.8725 333.58 98.9101C333.455 98.9477 333.326 98.9947 333.195 99.0511L332.866 98.1767L334.596 96.2775L334.953 96.5314L332.198 96.5032V95.2809H336.147L336.41 95.798L334.248 98.1391L333.928 97.7631C333.978 97.7443 334.06 97.7254 334.173 97.7066C334.285 97.6816 334.389 97.669 334.483 97.669C334.765 97.669 335.031 97.7223 335.282 97.8289C335.533 97.9292 335.755 98.0733 335.95 98.2614C336.144 98.4494 336.294 98.6688 336.401 98.9195C336.514 99.1702 336.57 99.4398 336.57 99.7281C336.57 100.161 336.46 100.549 336.241 100.894C336.028 101.232 335.736 101.502 335.367 101.703C335.003 101.897 334.596 101.994 334.144 101.994Z" fill="#EF2F5B"/>
<path d="M339.648 101.9C339.309 101.9 338.993 101.84 338.698 101.721C338.41 101.602 338.156 101.436 337.937 101.223C337.723 101.01 337.554 100.759 337.429 100.471C337.31 100.183 337.25 99.8723 337.25 99.5401C337.256 99.2643 337.3 98.9791 337.382 98.6845C337.47 98.3899 337.592 98.0827 337.749 97.7631C337.911 97.4371 338.106 97.0892 338.331 96.7194L339.225 95.2151H340.532L340.579 95.3091L339.384 97.2177C339.215 97.4998 339.065 97.7693 338.933 98.0263C338.808 98.277 338.695 98.5215 338.595 98.7597C338.501 98.9916 338.413 99.2266 338.331 99.4648L338.059 98.6845C338.165 98.4024 338.322 98.1579 338.529 97.9511C338.736 97.7443 338.965 97.5844 339.215 97.4716C339.472 97.3525 339.726 97.293 339.977 97.293C340.347 97.293 340.685 97.3932 340.992 97.5938C341.299 97.7881 341.544 98.0483 341.726 98.3742C341.914 98.7001 342.008 99.0574 342.008 99.446C342.008 99.9161 341.904 100.336 341.697 100.706C341.497 101.076 341.218 101.367 340.861 101.58C340.51 101.793 340.105 101.9 339.648 101.9ZM339.657 100.706C339.87 100.706 340.058 100.659 340.221 100.565C340.391 100.465 340.522 100.327 340.616 100.151C340.71 99.9694 340.757 99.7688 340.757 99.5495C340.757 99.3551 340.707 99.1734 340.607 99.0041C340.513 98.8286 340.384 98.6876 340.221 98.581C340.058 98.4745 339.873 98.4212 339.667 98.4212C339.447 98.4212 339.253 98.4713 339.084 98.5716C338.914 98.6719 338.78 98.8067 338.679 98.9759C338.585 99.1452 338.538 99.3332 338.538 99.5401C338.538 99.7594 338.585 99.9569 338.679 100.132C338.78 100.308 338.911 100.449 339.074 100.555C339.243 100.656 339.438 100.706 339.657 100.706Z" fill="#EF2F5B"/>
<path d="M345.339 101.994C344.781 101.994 344.302 101.859 343.9 101.59C343.506 101.314 343.202 100.925 342.988 100.424C342.782 99.9161 342.678 99.3113 342.678 98.6092C342.678 97.9072 342.782 97.3055 342.988 96.804C343.202 96.2963 343.506 95.9077 343.9 95.6382C344.302 95.3624 344.781 95.2245 345.339 95.2245C345.897 95.2245 346.373 95.3624 346.768 95.6382C347.169 95.9077 347.473 96.2963 347.68 96.804C347.893 97.3055 348 97.9072 348 98.6092C348 99.3113 347.893 99.9161 347.68 100.424C347.473 100.925 347.169 101.314 346.768 101.59C346.373 101.859 345.897 101.994 345.339 101.994ZM345.339 100.781C345.759 100.781 346.082 100.593 346.307 100.217C346.539 99.8347 346.655 99.2987 346.655 98.6092C346.655 97.901 346.539 97.3556 346.307 96.9733C346.082 96.5909 345.759 96.3998 345.339 96.3998C344.919 96.3998 344.593 96.5909 344.361 96.9733C344.135 97.3556 344.023 97.901 344.023 98.6092C344.023 99.2987 344.135 99.8347 344.361 100.217C344.593 100.593 344.919 100.781 345.339 100.781Z" fill="#EF2F5B"/>
<path d="M312.435 102.052C311.965 102.052 311.545 101.939 311.175 101.713C310.812 101.487 310.523 101.183 310.31 100.801C310.103 100.412 310 99.9737 310 99.4848C310 99.0022 310.103 98.5697 310.31 98.1873C310.523 97.7987 310.812 97.4947 311.175 97.2753C311.545 97.0497 311.965 96.9368 312.435 96.9368C312.861 96.9368 313.247 97.0215 313.592 97.1907C313.936 97.3537 314.209 97.5824 314.41 97.877L313.996 98.366C313.883 98.2155 313.745 98.0839 313.582 97.9711C313.419 97.852 313.244 97.7611 313.056 97.6984C312.868 97.6295 312.68 97.595 312.492 97.595C312.147 97.595 311.837 97.6765 311.561 97.8394C311.291 98.0024 311.078 98.2281 310.921 98.5164C310.765 98.7984 310.686 99.1213 310.686 99.4848C310.686 99.8483 310.765 100.174 310.921 100.463C311.084 100.751 311.304 100.98 311.58 101.149C311.855 101.318 312.162 101.403 312.501 101.403C312.689 101.403 312.871 101.375 313.046 101.318C313.228 101.256 313.397 101.168 313.554 101.055C313.711 100.942 313.858 100.804 313.996 100.641L314.4 101.14C314.193 101.409 313.911 101.628 313.554 101.798C313.203 101.967 312.83 102.052 312.435 102.052Z" fill="#3C4852"/>
<path d="M317.787 102.052C317.561 102.052 317.339 102.014 317.12 101.939C316.9 101.864 316.7 101.763 316.518 101.638C316.342 101.506 316.192 101.359 316.066 101.196C315.947 101.033 315.869 100.864 315.831 100.688L316.01 100.613V101.939H315.296V95H316.01V98.3283L315.888 98.2813C315.925 98.0996 316.001 97.9303 316.113 97.7736C316.233 97.6106 316.377 97.4665 316.546 97.3411C316.721 97.2158 316.913 97.1186 317.12 97.0497C317.326 96.9744 317.539 96.9368 317.759 96.9368C318.21 96.9368 318.608 97.0465 318.953 97.2659C319.304 97.4853 319.58 97.7862 319.78 98.1685C319.987 98.5509 320.091 98.9896 320.091 99.4848C320.091 99.9737 319.987 100.412 319.78 100.801C319.58 101.19 319.304 101.497 318.953 101.723C318.608 101.942 318.22 102.052 317.787 102.052ZM317.674 101.393C318.006 101.393 318.301 101.312 318.558 101.149C318.821 100.98 319.028 100.751 319.179 100.463C319.329 100.174 319.404 99.8483 319.404 99.4848C319.404 99.1213 319.329 98.7984 319.179 98.5164C319.034 98.2281 318.831 98.0024 318.567 97.8394C318.31 97.6765 318.013 97.595 317.674 97.595C317.348 97.595 317.057 97.6765 316.8 97.8394C316.549 98.0024 316.349 98.2281 316.198 98.5164C316.054 98.7984 315.982 99.1213 315.982 99.4848C315.982 99.8546 316.054 100.184 316.198 100.472C316.349 100.754 316.549 100.98 316.8 101.149C317.057 101.312 317.348 101.393 317.674 101.393Z" fill="#3C4852"/>
<path d="M322.79 102.052C322.376 102.052 322.003 101.979 321.671 101.835C321.339 101.685 321.069 101.472 320.862 101.196L321.351 100.773C321.533 100.999 321.749 101.168 322 101.281C322.251 101.393 322.536 101.45 322.856 101.45C323.019 101.45 323.163 101.431 323.288 101.393C323.414 101.35 323.52 101.293 323.608 101.224C323.696 101.149 323.758 101.064 323.796 100.97C323.84 100.87 323.862 100.763 323.862 100.651C323.862 100.444 323.78 100.278 323.617 100.152C323.529 100.09 323.407 100.03 323.251 99.9737C323.1 99.911 322.915 99.8515 322.696 99.7951C322.357 99.7136 322.072 99.6196 321.84 99.513C321.615 99.4002 321.436 99.2717 321.304 99.1275C321.204 99.0147 321.129 98.8925 321.079 98.7608C321.029 98.6292 321.003 98.4788 321.003 98.3095C321.003 98.04 321.079 97.8018 321.229 97.595C321.38 97.3881 321.583 97.2283 321.84 97.1155C322.104 96.9964 322.401 96.9368 322.733 96.9368C322.959 96.9368 323.182 96.9682 323.401 97.0309C323.627 97.0935 323.833 97.1844 324.022 97.3035C324.21 97.4226 324.373 97.5668 324.51 97.736L324.087 98.1873C323.962 98.0557 323.824 97.9429 323.674 97.8488C323.529 97.7485 323.379 97.6733 323.222 97.6232C323.066 97.5668 322.912 97.5386 322.762 97.5386C322.599 97.5386 322.451 97.5574 322.32 97.595C322.188 97.6263 322.075 97.6765 321.981 97.7454C321.894 97.8081 321.828 97.8864 321.784 97.9805C321.74 98.0682 321.718 98.1716 321.718 98.2907C321.724 98.3785 321.746 98.4662 321.784 98.554C321.821 98.6355 321.875 98.7044 321.944 98.7608C322.031 98.8298 322.157 98.8987 322.32 98.9677C322.483 99.0304 322.68 99.0868 322.912 99.1369C323.213 99.2121 323.467 99.2968 323.674 99.3908C323.881 99.4785 324.047 99.5851 324.172 99.7105C324.304 99.8233 324.398 99.9549 324.454 100.105C324.51 100.256 324.539 100.428 324.539 100.622C324.539 100.905 324.463 101.155 324.313 101.375C324.163 101.588 323.956 101.754 323.692 101.873C323.429 101.992 323.128 102.052 322.79 102.052Z" fill="#3C4852"/>
<path d="M327.881 102.052C327.386 102.052 326.947 101.945 326.565 101.732C326.183 101.513 325.882 101.212 325.662 100.829C325.449 100.447 325.343 100.011 325.343 99.5224C325.343 99.1401 325.402 98.7922 325.521 98.4788C325.647 98.1591 325.816 97.8864 326.029 97.6608C326.248 97.4289 326.509 97.2502 326.809 97.1249C327.11 96.9995 327.439 96.9368 327.797 96.9368C328.11 96.9368 328.401 96.9932 328.671 97.1061C328.947 97.2189 329.185 97.3819 329.386 97.595C329.586 97.8018 329.74 98.0494 329.846 98.3377C329.953 98.6198 330 98.9332 329.987 99.278L329.978 99.6352H325.86L325.709 99.0523H329.386L329.254 99.2121L329.263 98.9771C329.251 98.7076 329.176 98.4694 329.038 98.2625C328.9 98.0557 328.721 97.8927 328.502 97.7736C328.289 97.6545 328.054 97.595 327.797 97.595C327.433 97.595 327.12 97.6733 326.856 97.83C326.593 97.9805 326.393 98.1967 326.255 98.4788C326.123 98.7546 326.054 99.0868 326.048 99.4754C326.054 99.864 326.136 100.202 326.292 100.491C326.449 100.773 326.668 100.995 326.95 101.158C327.239 101.315 327.571 101.393 327.947 101.393C328.217 101.393 328.467 101.35 328.699 101.262C328.931 101.168 329.166 101.014 329.404 100.801L329.762 101.309C329.611 101.459 329.433 101.591 329.226 101.704C329.025 101.81 328.809 101.895 328.577 101.958C328.345 102.02 328.113 102.052 327.881 102.052Z" fill="#3C4852"/>
</svg>
